 <svg  version="1.0" xmlns="http://www.w3.org/2000/svg"  width="785.000000pt" height="340.000000pt" viewBox="0 0 785.000000 340.000000"  preserveAspectRatio="xMidYMid meet">  <g transform="translate(0.000000,340.000000) scale(0.050000,-0.050000)" fill="#c59716" stroke="none"> <path d="M1084 5557 l6 -142 145 -3 145 -3 0 146 0 145 -151 0 -151 0 6 -143z"/> <path d="M2595 5661 c-856 -274 -815 -1484 59 -1711 213 -56 217 -54 210 117 l-7 148 -89 12 c-467 64 -666 631 -345 982 335 367 930 202 1027 -283 l22 -111 144 -3 c167 -3 170 2 114 214 -129 494 -655 789 -1135 635z"/> <path d="M4976 5661 c-754 -241 -854 -1263 -158 -1629 725 -381 1541 323 1258 1086 -165 444 -654 686 -1100 543z m514 -309 c576 -266 385 -1132 -250 -1132 -175 0 -293 50 -421 179 -471 470 66 1232 671 953z"/> <path d="M7392 5678 c-667 -157 -897 -1038 -392 -1505 598 -552 1524 -133 1496 677 -20 569 -541 960 -1104 828z m478 -326 c584 -273 387 -1122 -260 -1122 -363 0 -579 216 -580 580 -1 456 429 733 840 542z"/> <path d="M1080 4520 l0 -600 155 0 155 0 -6 600 -5 600 -150 0 -149 0 0 -600z"/> <path d="M2945 4735 l-105 -106 370 -369 370 -370 105 105 105 105 -371 370 -370 371 -104 -106z"/> </g> </svg> 