<svg width="40" height="34" viewBox="0 0 40 34" fill="none" xmlns="http://www.w3.org/2000/svg">
<rect width="40" height="34" rx="17" fill="#C2C2C2"/>
<path fill-rule="evenodd" clip-rule="evenodd" d="M32 11.0125C31.2272 11.3534 30.3983 11.5846 29.5269 11.6881C30.4162 11.1581 31.0991 10.3153 31.4195 9.31422C30.5878 9.80571 29.6653 10.1621 28.6838 10.3562C27.8982 9.5223 26.7795 9 25.5403 9C23.1609 9 21.2323 10.9219 21.2323 13.2919C21.2323 13.6277 21.2708 13.9559 21.3439 14.27C17.7649 14.0899 14.5908 12.3814 12.4663 9.78405C12.0947 10.4187 11.8831 11.1568 11.8831 11.9421C11.8831 13.431 12.5502 14.7451 13.706 15.5149C12.9999 15.4921 11.6615 15.2992 11.6615 14.9774V15.031C11.6615 17.1099 13.2408 18.8453 15.2103 19.2399C14.8491 19.3382 14.515 19.3906 14.1215 19.3906C13.8434 19.3906 13.5976 19.3624 13.3336 19.3126C13.8821 21.0186 15.4839 22.2586 17.3689 22.2942C15.8953 23.4448 14.0429 24.1319 12.0249 24.1319C11.6762 24.1319 11.3371 24.1101 11 24.0718C12.9069 25.2888 15.1712 26 17.6046 26C25.5275 26 29.8606 19.4595 29.8606 13.7874C29.8606 13.6008 29.8571 13.4157 29.8482 13.2319C30.6902 12.6266 31.4193 11.8706 31.9972 11.0099L32 11.0125Z" fill="#333333"/>
</svg>
