<svg width="40" height="34" viewBox="0 0 40 34" fill="none" xmlns="http://www.w3.org/2000/svg">
<rect width="40" height="34" rx="17" fill="#C2C2C2"/>
<path fill-rule="evenodd" clip-rule="evenodd" d="M20 13.6943C18.3427 13.6943 17 15.0371 17 16.6944C17 18.3516 18.3427 19.6943 20 19.6943C21.6573 19.6943 23 18.3516 23 16.6944C23 15.0371 21.6573 13.6943 20 13.6943" fill="#333333"/>
<path fill-rule="evenodd" clip-rule="evenodd" d="M15.2369 7.75C12.9071 7.75 11 9.65802 11 11.989V21.52C11 23.842 12.9071 25.75 15.2369 25.75H24.7631C27.093 25.75 29 23.842 29 21.511V11.989C28.991 9.65802 27.0839 7.75 24.7541 7.75H15.2369ZM20.0001 22C17.0982 22 14.75 19.6518 14.75 16.7501C14.75 13.8482 17.0982 11.5 20.0001 11.5C22.9018 11.5 25.25 13.8482 25.25 16.7501C25.25 19.6518 22.9018 22 20.0001 22V22ZM26 12.25C25.1756 12.25 24.5 11.5844 24.5 10.75C24.5 9.91553 25.1656 9.25 26 9.25C26.8245 9.25 27.5 9.91553 27.5 10.75C27.4901 11.5745 26.8245 12.25 26 12.25V12.25Z" fill="#333333"/>
</svg>
